<?xml version="1.0" encoding="UTF-8" standalone="no"?>
<!-- Created with Inkscape (http://www.inkscape.org/) -->

<svg
   width="150"
   height="150"
   viewBox="0 0 39.687501 39.687502"
   version="1.1"
   id="svg5"
   sodipodi:docname="kuantis-icon.svg"
   inkscape:version="1.3.2 (091e20e, 2023-11-25, custom)"
   inkscape:export-filename="kuantis-logo-full.png"
   inkscape:export-xdpi="300"
   inkscape:export-ydpi="300"
   xml:space="preserve"
   xmlns:inkscape="http://www.inkscape.org/namespaces/inkscape"
   xmlns:sodipodi="http://sodipodi.sourceforge.net/DTD/sodipodi-0.dtd"
   xmlns="http://www.w3.org/2000/svg"
   xmlns:svg="http://www.w3.org/2000/svg"><sodipodi:namedview
     id="namedview17"
     pagecolor="#ffffff"
     bordercolor="#3e3e3e"
     borderopacity="0.15294118"
     inkscape:showpageshadow="false"
     inkscape:pageopacity="0"
     inkscape:pagecheckerboard="false"
     inkscape:deskcolor="#ffffff"
     showgrid="false"
     inkscape:zoom="1.5556349"
     inkscape:cx="412.05041"
     inkscape:cy="-428.12101"
     inkscape:window-width="1536"
     inkscape:window-height="898"
     inkscape:window-x="-6"
     inkscape:window-y="-6"
     inkscape:window-maximized="1"
     inkscape:current-layer="svg5"
     showguides="true" /><defs
     id="defs2" /><text
     xml:space="preserve"
     style="font-style:normal;font-variant:normal;font-weight:bold;font-stretch:normal;font-size:13.2412px;font-family:Dubai;-inkscape-font-specification:'Dubai, Bold';font-variant-ligatures:normal;font-variant-caps:normal;font-variant-numeric:normal;font-variant-east-asian:normal;letter-spacing:0.529167px;fill:#152c50;fill-opacity:0.992157;stroke-width:1.10343"
     x="0.62042046"
     y="68.056282"
     id="text1"
     transform="scale(1.0431601,0.95862563)"><tspan
       sodipodi:role="line"
       id="tspan1"
       style="font-style:normal;font-variant:normal;font-weight:bold;font-stretch:normal;font-size:13.2412px;font-family:Dubai;-inkscape-font-specification:'Dubai, Bold';font-variant-ligatures:normal;font-variant-caps:normal;font-variant-numeric:normal;font-variant-east-asian:normal;letter-spacing:0.529167px;fill:#152c50;fill-opacity:0.992157;stroke-width:1.10343"
       x="0.62042046"
       y="68.056282">kuantis</tspan></text><path
     style="fill:none;fill-opacity:0.992157;stroke:#b0b0b0;stroke-width:1.05833;stroke-linecap:round;stroke-linejoin:round;stroke-dasharray:0, 4.23333;paint-order:stroke markers fill"
     d="m 102.21666,89.407539 c 1.36733,-10.329015 10.8491,-17.593894 21.17811,-16.226563 10.32902,1.367335 17.59389,10.849099 16.22656,21.178115 -1.36734,10.329009 -10.8491,17.593889 -21.17811,16.226559 -3.02211,-0.40006 -5.78192,-1.49477 -8.13995,-3.10209 -2.14644,-1.4631 -3.95998,-3.35095 -5.33542,-5.52626 -2.27796,-3.602656 -3.3543,-7.99379 -2.75119,-12.549761 z"
     id="path1" /><text
     xml:space="preserve"
     style="font-style:normal;font-variant:normal;font-weight:bold;font-stretch:normal;font-size:7.35629px;font-family:Dubai;-inkscape-font-specification:'Dubai, Bold';font-variant-ligatures:normal;font-variant-caps:normal;font-variant-numeric:normal;font-variant-east-asian:normal;letter-spacing:0px;fill:#152c50;fill-opacity:0.992157;stroke-width:1.64352"
     x="49.350456"
     y="113.12328"
     id="text3"
     transform="scale(0.93802233,1.0660727)"><tspan
       sodipodi:role="line"
       id="tspan2"
       style="font-style:normal;font-variant:normal;font-weight:500;font-stretch:normal;font-size:7.35629px;font-family:Dubai;-inkscape-font-specification:'Dubai, Medium';font-variant-ligatures:normal;font-variant-caps:normal;font-variant-numeric:normal;font-variant-east-asian:normal;letter-spacing:0px;fill:#152c50;fill-opacity:0.992157;stroke-width:1.64352"
       x="49.350456"
       y="113.12328">Digital Partner Solutions</tspan></text><g
     id="g18"
     transform="matrix(2.1222877,0,0,2.1989386,38.923895,-49.577748)"
     inkscape:export-filename="kuantis-logo.png"
     inkscape:export-xdpi="300"
     inkscape:export-ydpi="300"><path
       style="font-weight:bold;font-size:13.2412px;font-family:Dubai;-inkscape-font-specification:'Dubai, Bold';fill:#152c50;fill-opacity:0.992157;stroke-width:1.10343"
       d="m 42.90233,67.661139 c -0.58934,0 -1.118828,-0.06347 -1.588459,-0.1904 -0.460423,-0.135395 -0.893221,-0.334258 -1.298392,-0.596587 l 0.787323,-1.104323 c 0.340712,0.228481 0.68603,0.393495 1.035951,0.495041 0.349922,0.09308 0.686031,0.139627 1.008327,0.139627 0.303879,0 0.524882,-0.04231 0.663009,-0.126933 0.147335,-0.08463 0.221003,-0.198862 0.221003,-0.342721 0,-0.09308 -0.02762,-0.173475 -0.08288,-0.241173 -0.05526,-0.07616 -0.170359,-0.14809 -0.345318,-0.215787 -0.165752,-0.07616 -0.41438,-0.156551 -0.745885,-0.241174 l -0.400567,-0.101547 c -0.66301,-0.169245 -1.14185,-0.389263 -1.436521,-0.660054 -0.285461,-0.270792 -0.428193,-0.638899 -0.428193,-1.104323 0,-0.355413 0.105898,-0.668515 0.317692,-0.939307 0.211794,-0.270792 0.51107,-0.478116 0.897824,-0.621975 0.386756,-0.15232 0.828762,-0.22848 1.326019,-0.22848 0.939263,0 1.791046,0.207325 2.555348,0.621974 l -0.71826,1.104322 c -0.377547,-0.177708 -0.695239,-0.30041 -0.953076,-0.368107 -0.257837,-0.0677 -0.534091,-0.101547 -0.828761,-0.101547 -0.230212,0 -0.405172,0.03808 -0.524882,0.11424 -0.110502,0.07616 -0.165753,0.173476 -0.165753,0.291947 0,0.08462 0.02302,0.156551 0.06907,0.215787 0.04604,0.05078 0.128921,0.101549 0.248629,0.15232 0.128918,0.04231 0.3269,0.09732 0.593945,0.165014 l 0.455819,0.114241 c 0.709051,0.169244 1.224725,0.406187 1.547021,0.710827 0.331505,0.304641 0.497258,0.689672 0.497258,1.155095 0,0.363876 -0.101291,0.689673 -0.30388,0.977389 -0.193378,0.287715 -0.497257,0.516196 -0.911638,0.68544 -0.405172,0.160783 -0.902429,0.241174 -1.491772,0.241174 z"
       id="path4" /><path
       style="font-weight:bold;font-size:13.2412px;font-family:Dubai;-inkscape-font-specification:'Dubai, Bold';fill:#152c50;fill-opacity:0.992157;stroke-width:1.10343"
       d="m 37.156242,67.483432 v -5.673929 l 1.878526,-0.165014 v 5.838943 z"
       id="path11" /><path
       style="font-weight:bold;font-size:13.2412px;font-family:Dubai;-inkscape-font-specification:'Dubai, Bold';fill:#d40000;fill-opacity:0.992157;stroke-width:1.10343"
       d="m 38.06788,61.237334 c -0.211794,0 -0.409776,-0.04654 -0.593945,-0.139627 -0.184169,-0.101547 -0.331505,-0.232712 -0.442007,-0.393495 -0.110501,-0.160781 -0.165752,-0.338489 -0.165752,-0.53312 0,-0.194632 0.05526,-0.372339 0.165752,-0.533122 0.110502,-0.169244 0.257838,-0.300409 0.442007,-0.393493 0.184169,-0.101547 0.382151,-0.15232 0.593945,-0.15232 0.221003,0 0.42359,0.05078 0.607758,0.15232 0.193378,0.09308 0.345318,0.224249 0.45582,0.393493 0.110501,0.160783 0.165752,0.33849 0.165752,0.533122 0,0.194631 -0.05526,0.372339 -0.165752,0.53312 -0.110502,0.160783 -0.262442,0.291948 -0.45582,0.393495 -0.184168,0.09308 -0.386755,0.139627 -0.607758,0.139627 z"
       id="path12" /><path
       style="font-weight:bold;font-size:13.2412px;font-family:Dubai;-inkscape-font-specification:'Dubai, Bold';fill:#152c50;fill-opacity:0.992157;stroke-width:1.10343"
       d="m 36.21697,67.242259 c -0.5433,0.279254 -1.151059,0.41888 -1.823276,0.41888 -0.340713,0 -0.658405,-0.05923 -0.953076,-0.177707 -0.285462,-0.126933 -0.520278,-0.325795 -0.704447,-0.596587 -0.184169,-0.270792 -0.276254,-0.613512 -0.276254,-1.028161 v -2.729068 h -1.13264 v -1.358189 h 1.13264 v -1.282029 l 1.878527,-0.241174 v 1.523203 1.358189 2.46251 c 0,0.253868 0.04604,0.431575 0.138127,0.533122 0.101291,0.101546 0.23942,0.152319 0.41438,0.152319 0.128918,0 0.253233,-0.01269 0.372943,-0.03808 0.11971,-0.03385 0.267046,-0.08463 0.442005,-0.152321 z"
       id="path13" /><path
       style="font-weight:bold;font-size:13.2412px;font-family:Dubai;-inkscape-font-specification:'Dubai, Bold';fill:#152c50;fill-opacity:0.992157;stroke-width:1.10343"
       d="m 28.689052,61.581023 c 0.635383,0 1.114223,0.148089 1.436519,0.444267 0.322297,0.287716 0.483445,0.710828 0.483445,1.269335 v 4.188807 H 28.730489 V 63.80236 c 0,-0.236943 -0.02762,-0.41888 -0.08288,-0.545814 -0.04604,-0.135396 -0.128921,-0.232712 -0.248629,-0.291948 -0.11971,-0.05923 -0.290066,-0.08885 -0.511069,-0.08885 -0.368339,0 -0.801137,0.135396 -1.298393,0.406187 v 4.2015 h -1.878526 v -5.673928 l 1.878526,-0.165014 V 62.203 c 0.340714,-0.194631 0.681426,-0.346951 1.022139,-0.45696 0.349922,-0.110009 0.709052,-0.165014 1.077391,-0.165014 z"
       id="path14" /><path
       id="path15"
       style="font-weight:bold;font-size:13.2412px;font-family:Dubai;-inkscape-font-specification:'Dubai, Bold';fill:#152c50;fill-opacity:0.992157;stroke-width:1.10343"
       d="m 20.677755,61.580923 c -0.561715,0 -1.081958,0.07211 -1.560796,0.215971 -0.469632,0.143858 -0.953238,0.36372 -1.450494,0.659897 l 0.718307,1.040843 c 0.736676,-0.431573 1.39509,-0.647207 1.975224,-0.647207 0.230211,0 0.409689,0.03382 0.538608,0.101523 0.128915,0.05924 0.216447,0.156483 0.262487,0.291877 0.05526,0.135396 0.08279,0.321668 0.08279,0.55861 v 0.139594 c -1.160265,0.04231 -2.099455,0.241031 -2.817713,0.596446 -0.71826,0.346951 -1.077461,0.854794 -1.077461,1.52331 0,0.313103 0.07843,0.592393 0.234972,0.837798 0.165752,0.236943 0.395878,0.42298 0.690549,0.558375 0.29467,0.135394 0.635433,0.20328 1.022188,0.20328 0.368338,0 0.718198,-0.04675 1.049702,-0.139829 0.340713,-0.09309 0.681476,-0.253752 1.022188,-0.482232 l 0.151941,0.444161 h 1.60219 v -4.023777 c 0,-0.668516 -0.207016,-1.146527 -0.621397,-1.434243 -0.405172,-0.296178 -1.012939,-0.444397 -1.823283,-0.444397 z m 0.566124,3.38926 v 1.104295 c -0.451215,0.228481 -0.86549,0.342639 -1.243037,0.342639 -0.230212,0 -0.405263,-0.04651 -0.524973,-0.139594 -0.119705,-0.101547 -0.179455,-0.245302 -0.179455,-0.431471 0,-0.22848 0.156612,-0.423208 0.4697,-0.583991 0.313086,-0.160785 0.805548,-0.258028 1.477765,-0.291878 z" /><path
       style="font-weight:bold;font-size:13.2412px;font-family:Dubai;-inkscape-font-specification:'Dubai, Bold';fill:#152c50;fill-opacity:0.992157;stroke-width:1.10343"
       d="m 16.216165,61.644493 v 5.838943 h -1.602272 l -0.15194,-0.45696 c -0.709051,0.423111 -1.43652,0.634667 -2.182405,0.634667 -0.616967,0 -1.095807,-0.156551 -1.436519,-0.469653 -0.331505,-0.313104 -0.497258,-0.744678 -0.497258,-1.294723 v -4.08726 l 1.878527,-0.165014 v 3.74454 c 0,0.338489 0.05986,0.583894 0.179564,0.736215 0.11971,0.143858 0.336109,0.215786 0.649197,0.215786 0.331505,0 0.759698,-0.131165 1.28458,-0.393494 v -4.138033 z"
       id="path16" /><path
       style="font-weight:bold;font-size:13.2412px;font-family:Dubai;-inkscape-font-specification:'Dubai, Bold';fill:#152c50;fill-opacity:0.992157;stroke-width:1.10343"
       d="m 7.1274035,64.386258 2.4034083,2.995632 v 0.101546 H 7.3345939 L 5.1660012,64.640125 v 2.843311 H 3.287475 v -8.733028 l 1.8785262,-0.165013 v 5.75009 L 7.41747,61.771427 h 1.9890276 v 0.08886 z"
       id="path17" /><path
       style="font-weight:bold;font-size:13.2412px;font-family:Dubai;-inkscape-font-specification:'Dubai, Bold';fill:#d40000;fill-opacity:0.992157;stroke-width:1.10343"
       d="m 34.894045,63.54455 c -0.211794,0 -0.409777,-0.04654 -0.593946,-0.139627 -0.184168,-0.101547 -0.331504,-0.232712 -0.442006,-0.393495 -0.110501,-0.160781 -0.165752,-0.338488 -0.165752,-0.53312 0,-0.194632 0.05526,-0.372339 0.165752,-0.533122 0.110502,-0.169244 0.257838,-0.300409 0.442006,-0.393493 0.184169,-0.101547 0.382152,-0.15232 0.593946,-0.15232 0.221002,0 0.423589,0.05078 0.607758,0.15232 0.193378,0.09308 0.345318,0.224249 0.455819,0.393493 0.110501,0.160783 0.165752,0.33849 0.165752,0.533122 0,0.194632 -0.05526,0.372339 -0.165752,0.53312 -0.110501,0.160783 -0.262441,0.291948 -0.455819,0.393495 -0.184169,0.09308 -0.386756,0.139627 -0.607758,0.139627 z"
       id="path18" /></g><circle
     style="fill:none;fill-opacity:0.992157;stroke:#b0b0b0;stroke-width:1.05833;stroke-linecap:round;stroke-linejoin:round;stroke-dasharray:0, 4.23333;stroke-dashoffset:0;stroke-opacity:1;paint-order:stroke markers fill"
     id="circle18"
     cx="-201.00253"
     cy="-50.498802"
     r="18.865496"
     transform="rotate(-172.45915)" /><g
     id="g1"
     transform="matrix(1.6575601,0,0,1.6575601,8.1762628,-74.40025)"><path
       style="font-weight:bold;font-size:13.2412px;font-family:Dubai;-inkscape-font-specification:'Dubai, Bold';fill:#152c50;fill-opacity:0.992157;stroke-width:2.38371"
       d="M 24.529753,21.085543 V 8.608922 L 28.516526,8.2460663 V 21.085543 Z"
       id="path8" /><path
       style="font-weight:bold;font-size:13.2412px;font-family:Dubai;-inkscape-font-specification:'Dubai, Bold';fill:#d40000;fill-opacity:0.992157;stroke-width:2.38371"
       d="m 26.464511,7.3507575 c -0.449487,0 -0.869662,-0.1023386 -1.260522,-0.3070312 C 24.81313,6.8204307 24.50044,6.5320069 24.265923,6.1784549 24.031408,5.8249074 23.91415,5.4341384 23.91415,5.0061568 c 0,-0.4279838 0.117277,-0.8187506 0.351773,-1.1723025 0.234517,-0.3721572 0.547207,-0.660581 0.938066,-0.865267 0.39086,-0.2232956 0.811035,-0.3349423 1.260522,-0.3349423 0.469032,0 0.89898,0.1116621 1.289838,0.3349423 0.410404,0.2046772 0.732864,0.4931098 0.967381,0.865267 0.234515,0.3535519 0.351773,0.7443187 0.351773,1.1723025 0,0.4279816 -0.117277,0.8187506 -0.351773,1.1722981 -0.234517,0.353552 -0.556977,0.6419758 -0.967381,0.8652714 -0.390858,0.2046772 -0.820806,0.3070312 -1.289838,0.3070312 z"
       id="path7" /><path
       style="font-weight:bold;font-size:13.2412px;font-family:Dubai;-inkscape-font-specification:'Dubai, Bold';fill:#152c50;fill-opacity:0.992157;stroke-width:2.38371"
       d="m 22.536348,20.555219 c -1.153039,0.614062 -2.442878,0.921091 -3.869516,0.921091 -0.723091,0 -1.397325,-0.130243 -2.022702,-0.390767 -0.605832,-0.279117 -1.104179,-0.716403 -1.495039,-1.311858 -0.39086,-0.595455 -0.58629,-1.349075 -0.58629,-2.260863 V 11.511769 H 12.159013 V 8.5251952 h 2.403788 v -2.819103 l 3.986774,-0.5303269 v 3.3494299 2.9865738 5.414909 c 0,0.55824 0.09771,0.949007 0.293146,1.172302 0.214968,0.223294 0.508118,0.33494 0.879433,0.33494 0.273601,0 0.537433,-0.0279 0.791492,-0.08374 0.25406,-0.07443 0.566749,-0.186096 0.938062,-0.334945 z"
       id="path6" /><path
       style="font-weight:bold;font-size:13.2412px;font-family:Dubai;-inkscape-font-specification:'Dubai, Bold';fill:#d40000;fill-opacity:0.992157;stroke-width:2.38371"
       d="m 19.728721,12.424184 c -0.449488,0 -0.869665,-0.102339 -1.260525,-0.307031 -0.390857,-0.223296 -0.703547,-0.51172 -0.938064,-0.865272 -0.234515,-0.353547 -0.351773,-0.744314 -0.351773,-1.172298 0,-0.4279837 0.117278,-0.8187505 0.351773,-1.1723024 0.234517,-0.3721572 0.547207,-0.660581 0.938064,-0.865267 0.39086,-0.2232956 0.811037,-0.3349423 1.260525,-0.3349423 0.469029,0 0.898977,0.1116621 1.289837,0.3349423 0.410404,0.2046772 0.732864,0.4931098 0.967379,0.865267 0.234515,0.3535519 0.351773,0.7443187 0.351773,1.1723024 0,0.427984 -0.117277,0.818751 -0.351773,1.172298 -0.234515,0.353552 -0.556975,0.641976 -0.967379,0.865272 -0.39086,0.204677 -0.820808,0.307031 -1.289837,0.307031 z"
       id="path10" /></g><path
     style="font-weight:bold;font-size:13.2412px;font-family:Dubai;-inkscape-font-specification:'Dubai, Bold';letter-spacing:0.529167px;fill:#152c50;fill-opacity:0.992157;stroke-width:6.91182"
     d="m 4.681902,90.941548 15.054837,18.764492 v 0.63609 H 5.97973 L -7.604235,92.531758 V 90.623501 L 6.498863,74.562365 h 12.459179 v 0.556616 z"
     id="path24"
     sodipodi:nodetypes="cccccccccc" /><path
     style="font-weight:bold;font-size:13.2412px;font-family:Dubai;-inkscape-font-specification:'Dubai, Bold';letter-spacing:0.529167px;fill:#152c50;fill-opacity:0.992157;stroke:none;stroke-width:6.80121;stroke-dasharray:none;paint-order:stroke fill markers"
     d="m 98.926169,-56.293515 14.814151,18.464504 v 0.625918 H 100.20326 L 86.83645,-54.728728 v -1.87775 l 13.87763,-15.804366 h 12.25999 v 0.547718 z"
     id="text4"
     sodipodi:nodetypes="cccccccccc" /><path
     style="font-weight:bold;font-size:13.2412px;font-family:Dubai;-inkscape-font-specification:'Dubai, Bold';fill:#d40000;fill-opacity:0.992157;stroke-width:6.67203"
     d="m 112.184,-49.298987 c -1.25812,0 -2.4342,-0.286446 -3.52822,-0.859382 -1.09402,-0.625007 -1.96924,-1.432309 -2.62565,-2.421905 -0.65641,-0.989584 -0.98462,-2.08335 -0.98462,-3.281275 0,-1.197932 0.32826,-2.291693 0.98462,-3.281289 0.65641,-1.041672 1.53163,-1.848973 2.62565,-2.421892 1.09402,-0.625007 2.2701,-0.937507 3.52822,-0.937507 1.31282,0 2.51625,0.312544 3.61027,0.937507 1.14873,0.572894 2.0513,1.38022 2.70771,2.421892 0.65641,0.989596 0.98462,2.083357 0.98462,3.281289 0,1.197925 -0.32826,2.291691 -0.98462,3.281275 -0.65641,0.989596 -1.55898,1.796898 -2.70771,2.421905 -1.09402,0.572893 -2.29745,0.859382 -3.61027,0.859382 z"
     id="path7-3" /><g
     id="g29"
     transform="translate(-27.936771,-139.86872)"><g
       id="g28"
       transform="matrix(1.6575601,0,0,1.6575601,34.372357,0.07364567)"><path
         style="font-weight:bold;font-size:13.2412px;font-family:Dubai;-inkscape-font-specification:'Dubai, Bold';fill:#152c50;fill-opacity:0.992157;stroke-width:2.38371"
         d="M 24.529753,21.085543 V 8.608922 L 28.516526,8.2460663 V 21.085543 Z"
         id="path25" /><path
         style="font-weight:bold;font-size:13.2412px;font-family:Dubai;-inkscape-font-specification:'Dubai, Bold';fill:#d40000;fill-opacity:0.992157;stroke-width:2.38371"
         d="m 26.464511,7.3507575 c -0.449487,0 -0.869662,-0.1023386 -1.260522,-0.3070312 C 24.81313,6.8204307 24.50044,6.5320069 24.265923,6.1784549 24.031408,5.8249074 23.91415,5.4341384 23.91415,5.0061568 c 0,-0.4279838 0.117277,-0.8187506 0.351773,-1.1723025 0.234517,-0.3721572 0.547207,-0.660581 0.938066,-0.865267 0.39086,-0.2232956 0.811035,-0.3349423 1.260522,-0.3349423 0.469032,0 0.89898,0.1116621 1.289838,0.3349423 0.410404,0.2046772 0.732864,0.4931098 0.967381,0.865267 0.234515,0.3535519 0.351773,0.7443187 0.351773,1.1723025 0,0.4279816 -0.117277,0.8187506 -0.351773,1.1722981 -0.234517,0.353552 -0.556977,0.6419758 -0.967381,0.8652714 -0.390858,0.2046772 -0.820806,0.3070312 -1.289838,0.3070312 z"
         id="path26" /><path
         style="font-weight:bold;font-size:13.2412px;font-family:Dubai;-inkscape-font-specification:'Dubai, Bold';fill:#152c50;fill-opacity:0.992157;stroke-width:2.38371"
         d="m 22.536348,20.555219 c -1.153039,0.614062 -2.442878,0.921091 -3.869516,0.921091 -0.723091,0 -1.397325,-0.130243 -2.022702,-0.390767 -0.605832,-0.279117 -1.104179,-0.716403 -1.495039,-1.311858 -0.39086,-0.595455 -0.58629,-1.349075 -0.58629,-2.260863 V 11.511769 H 12.159013 V 8.5251952 h 2.403788 v -2.819103 l 3.986774,-0.5303269 v 3.3494299 2.9865738 5.414909 c 0,0.55824 0.09771,0.949007 0.293146,1.172302 0.214968,0.223294 0.508118,0.33494 0.879433,0.33494 0.273601,0 0.537433,-0.0279 0.791492,-0.08374 0.25406,-0.07443 0.566749,-0.186096 0.938062,-0.334945 z"
         id="path27" /><path
         style="font-weight:bold;font-size:13.2412px;font-family:Dubai;-inkscape-font-specification:'Dubai, Bold';fill:#d40000;fill-opacity:0.992157;stroke-width:2.38371"
         d="m 19.728721,12.424184 c -0.449488,0 -0.869665,-0.102339 -1.260525,-0.307031 -0.390857,-0.223296 -0.703547,-0.51172 -0.938064,-0.865272 -0.234515,-0.353547 -0.351773,-0.744314 -0.351773,-1.172298 0,-0.4279837 0.117278,-0.8187505 0.351773,-1.1723024 0.234517,-0.3721572 0.547207,-0.660581 0.938064,-0.865267 0.39086,-0.2232956 0.811037,-0.3349423 1.260525,-0.3349423 0.469029,0 0.898977,0.1116621 1.289837,0.3349423 0.410404,0.2046772 0.732864,0.4931098 0.967379,0.865267 0.234515,0.3535519 0.351773,0.7443187 0.351773,1.1723024 0,0.427984 -0.117277,0.818751 -0.351773,1.172298 -0.234515,0.353552 -0.556975,0.641976 -0.967379,0.865272 -0.39086,0.204677 -0.820808,0.307031 -1.289837,0.307031 z"
         id="path28" /></g><rect
       style="fill:none;fill-opacity:1;stroke:#142b50;stroke-width:2.51017;stroke-linecap:round;stroke-linejoin:round;stroke-dasharray:none;stroke-opacity:0.992157;paint-order:stroke markers fill"
       id="rect28"
       width="36.276024"
       height="36.276024"
       x="50.407032"
       y="1.9174834" /></g><rect
     style="fill:none;fill-opacity:1;stroke:#142b50;stroke-width:2.64583;stroke-linecap:round;stroke-linejoin:round;stroke-dasharray:none;stroke-opacity:0.992157;paint-order:stroke markers fill"
     id="rect29"
     width="36.276024"
     height="36.276024"
     x="138.48201"
     y="-164.43681" /><path
     style="font-weight:bold;font-size:13.2412px;font-family:Dubai;-inkscape-font-specification:'Dubai, Bold';letter-spacing:0.529167px;fill:#152c50;fill-opacity:0.992157;stroke-width:2.64583;stroke-dasharray:none"
     d="m 95.239314,-116.74636 15.054836,18.764496 v 0.636087 H 96.537146 l -13.58397,-17.810373 v -1.90825 l 14.1031,-16.06114 h 12.459184 v 0.55662 z"
     id="path29"
     sodipodi:nodetypes="cccccccccc" /><path
     style="font-weight:bold;font-size:13.2412px;font-family:Dubai;-inkscape-font-specification:'Dubai, Bold';fill:#d40000;fill-opacity:0.992157;stroke-width:2.64583;stroke-dasharray:none"
     d="m 107.56643,-108.82582 c -1.25812,0 -2.4342,-0.28645 -3.52822,-0.85939 -1.09402,-0.625 -1.96924,-1.4323 -2.62565,-2.4219 -0.65641,-0.98959 -0.98462,-2.08335 -0.98462,-3.28128 0,-1.19793 0.32826,-2.29169 0.98462,-3.28129 0.65641,-1.04167 1.53163,-1.84897 2.62565,-2.42189 1.09402,-0.625 2.2701,-0.9375 3.52822,-0.9375 1.31282,0 2.51625,0.31254 3.61027,0.9375 1.14873,0.5729 2.0513,1.38022 2.70771,2.42189 0.65641,0.9896 0.98462,2.08336 0.98462,3.28129 0,1.19793 -0.32826,2.29169 -0.98462,3.28128 -0.65641,0.9896 -1.55898,1.7969 -2.70771,2.4219 -1.09402,0.5729 -2.29745,0.85939 -3.61027,0.85939 z"
     id="path30" /><circle
     style="fill:none;fill-opacity:1;stroke:#142b50;stroke-width:3.96875015;stroke-linecap:round;stroke-linejoin:round;stroke-dasharray:none;stroke-opacity:0.992157;paint-order:stroke markers fill"
     id="path31"
     cx="43.936451"
     cy="-54.4184"
     r="21.386219" /><circle
     style="fill:none;fill-opacity:1;stroke:#152c50;stroke-width:4.17293;stroke-linecap:round;stroke-linejoin:round;stroke-dasharray:none;stroke-opacity:0.99215686;paint-order:stroke markers fill"
     id="circle31"
     cx="104.60191"
     cy="-54.841888"
     r="19.551117" /><g
     id="g37"><path
       style="font-weight:bold;font-size:13.2412px;font-family:Dubai;-inkscape-font-specification:'Dubai, Bold';letter-spacing:0.529167px;fill:#24467d;fill-opacity:0.992157;stroke:none;stroke-width:6.80121;stroke-dasharray:none;paint-order:stroke fill markers"
       d="m 85.696323,0.242331 30.194817,12.064813 -5.74628,6.390375 H 96.6078 L 85.696323,0.242331 v 0 l 21.903127,-16.003932 1.77916,-0.748631 4.71638,5.488681 z"
       id="path33"
       sodipodi:nodetypes="cccccccccc" /><path
       style="font-weight:bold;font-size:13.2412px;font-family:Dubai;-inkscape-font-specification:'Dubai, Bold';letter-spacing:0.529167px;fill:#1d3866;fill-opacity:0.992157;stroke:none;stroke-width:6.80121;stroke-dasharray:none;paint-order:stroke fill markers"
       d="M 85.696323,0.242331 113.018,15.502332 110.14486,18.697519 H 96.6078 L 85.696323,0.242331 v 0 l 21.903127,-16.003932 1.77916,-0.748631 1.87158,3.167926 z"
       id="path32"
       sodipodi:nodetypes="cccccccccc" /><path
       style="font-weight:bold;font-size:13.2412px;font-family:Dubai;-inkscape-font-specification:'Dubai, Bold';letter-spacing:0.529167px;fill:#152c50;fill-opacity:0.992157;stroke:none;stroke-width:6.80121;stroke-dasharray:none;paint-order:stroke fill markers"
       d="M 85.696323,0.242331 110.14486,18.38456 96.6078,18.697519 83.166127,2.893735 l 0.07486,-4.947136 14.142313,-14.456831 12.78935,-1.049546 z"
       id="text4-1"
       sodipodi:nodetypes="cccccccc" /><path
       style="font-weight:bold;font-size:13.2412px;font-family:Dubai;-inkscape-font-specification:'Dubai, Bold';fill:#d40000;fill-opacity:0.992157;stroke-width:6.67203"
       d="m 108.73453,7.1704955 c -1.25812,0 -2.4342,-0.286446 -3.52822,-0.859382 -1.09402,-0.625007 -1.96924,-1.432309 -2.62565,-2.421905 -0.65641,-0.989584 -0.98462,-2.08335 -0.98462,-3.281275 0,-1.197932 0.32826,-2.291693 0.98462,-3.281289 0.65641,-1.041672 1.53163,-1.848973 2.62565,-2.421892 1.09402,-0.625007 2.2701,-0.937507 3.52822,-0.937507 1.31282,0 2.51625,0.312544 3.61027,0.937507 1.14873,0.572894 2.0513,1.38022 2.70771,2.421892 0.65641,0.989596 0.98462,2.083357 0.98462,3.281289 0,1.197925 -0.32826,2.291691 -0.98462,3.281275 -0.65641,0.989596 -1.55898,1.796898 -2.70771,2.421905 -1.09402,0.572893 -2.29745,0.859382 -3.61027,0.859382 z"
       id="path7-3-3" /><circle
       style="fill:none;fill-opacity:1;stroke:#142b50;stroke-width:3.96875;stroke-linecap:round;stroke-linejoin:round;stroke-dasharray:none;stroke-opacity:1;paint-order:stroke fill markers"
       id="circle31-2"
       cx="101.00645"
       cy="1.0587232"
       r="19.551117" /></g><path
     style="font-weight:bold;font-size:13.2412px;font-family:Dubai;-inkscape-font-specification:'Dubai, Bold';letter-spacing:0.529167px;fill:#24467d;fill-opacity:0.992157;stroke:none;stroke-width:6.80121;stroke-dasharray:none;paint-order:stroke fill markers"
     d="m 173.14069,0 19.13958,11.817291 -5.74628,6.390375 H 172.99693 L 173.14069,0 v 0 l 10.84789,-16.251454 1.77916,-0.748631 4.71638,5.488681 z"
     id="path37"
     sodipodi:nodetypes="cccccccccc" /><path
     style="font-weight:bold;font-size:13.2412px;font-family:Dubai;-inkscape-font-specification:'Dubai, Bold';letter-spacing:0.529167px;fill:#1d3866;fill-opacity:0.992157;stroke:none;stroke-width:6.80121;stroke-dasharray:none;paint-order:stroke fill markers"
     d="m 173.14069,0 16.26644,15.012479 -2.87314,3.195187 H 172.99693 L 173.14069,0 v 0 l 10.84789,-16.251454 1.77916,-0.748631 1.87158,3.167926 z"
     id="path38"
     sodipodi:nodetypes="cccccccccc" /><path
     style="font-weight:bold;font-size:13.2412px;font-family:Dubai;-inkscape-font-specification:'Dubai, Bold';letter-spacing:0.529167px;fill:#152c50;fill-opacity:0.992157;stroke:none;stroke-width:6.80121;stroke-dasharray:none;paint-order:stroke fill markers"
     d="m 173.14069,0 13.3933,17.894707 -13.53706,0.312959 -2.38643,-15.556262 0.0749,-4.947136 3.08707,-14.704353 12.78935,-1.049546 z"
     id="path39"
     sodipodi:nodetypes="cccccccc" /><circle
     style="fill:none;fill-opacity:1;stroke:#142b50;stroke-width:3.96875;stroke-linecap:round;stroke-linejoin:round;stroke-dasharray:none;stroke-opacity:1;paint-order:stroke fill markers"
     id="circle40"
     cx="177.39557"
     cy="0.56887048"
     r="19.551117" /><rect
     style="opacity:1;fill:none;fill-opacity:1;stroke:#142b50;stroke-width:3.96875;stroke-linecap:round;stroke-linejoin:round;stroke-dasharray:none;stroke-opacity:0.992157;paint-order:stroke fill markers"
     id="rect46"
     width="37.644161"
     height="38.305004"
     x="81.605858"
     y="-134.38815"
     rx="7.9375005" /></svg>
