<?xml version="1.0" encoding="UTF-8" standalone="no"?>
<!-- Created with Inkscape (http://www.inkscape.org/) -->

<svg
   width="360"
   height="150"
   viewBox="0 0 95.250003 39.687502"
   version="1.1"
   id="svg5"
   sodipodi:docname="kuantis-logo.svg"
   inkscape:version="1.3.2 (091e20e, 2023-11-25, custom)"
   inkscape:export-filename="kuantis-logo-full.png"
   inkscape:export-xdpi="300"
   inkscape:export-ydpi="300"
   xmlns:inkscape="http://www.inkscape.org/namespaces/inkscape"
   xmlns:sodipodi="http://sodipodi.sourceforge.net/DTD/sodipodi-0.dtd"
   xmlns="http://www.w3.org/2000/svg"
   xmlns:svg="http://www.w3.org/2000/svg">
  <sodipodi:namedview
     id="namedview17"
     pagecolor="#ffffff"
     bordercolor="#3e3e3e"
     borderopacity="0.15294118"
     inkscape:showpageshadow="false"
     inkscape:pageopacity="0"
     inkscape:pagecheckerboard="false"
     inkscape:deskcolor="#ffffff"
     showgrid="false"
     inkscape:zoom="1.2495391"
     inkscape:cx="376.1387"
     inkscape:cy="336.92424"
     inkscape:window-width="1536"
     inkscape:window-height="898"
     inkscape:window-x="-6"
     inkscape:window-y="-6"
     inkscape:window-maximized="1"
     inkscape:current-layer="g3"
     showguides="true" />
  <defs
     id="defs2" />
  <text
     xml:space="preserve"
     style="font-style:normal;font-variant:normal;font-weight:bold;font-stretch:normal;font-size:13.2412px;font-family:Dubai;-inkscape-font-specification:'Dubai, Bold';font-variant-ligatures:normal;font-variant-caps:normal;font-variant-numeric:normal;font-variant-east-asian:normal;letter-spacing:0.529167px;fill:#152c50;fill-opacity:0.992157;stroke-width:1.10343"
     x="27.414301"
     y="72.694839"
     id="text1"
     transform="scale(1.0431601,0.95862563)"><tspan
       sodipodi:role="line"
       id="tspan1"
       style="font-style:normal;font-variant:normal;font-weight:bold;font-stretch:normal;font-size:13.2412px;font-family:Dubai;-inkscape-font-specification:'Dubai, Bold';font-variant-ligatures:normal;font-variant-caps:normal;font-variant-numeric:normal;font-variant-east-asian:normal;letter-spacing:0.529167px;fill:#152c50;fill-opacity:0.992157;stroke-width:1.10343"
       x="27.414301"
       y="72.694839">kuantis</tspan></text>
  <g
     id="g3"
     transform="translate(-3.0550156,6.3499976)">
    <path
       style="fill:none;fill-opacity:0.992157;stroke:#b0b0b0;stroke-width:1.05833;stroke-linecap:round;stroke-linejoin:round;stroke-dasharray:0, 4.23333;paint-order:stroke markers fill"
       d="m 105.27168,83.057541 c 1.36733,-10.329015 10.8491,-17.593894 21.17811,-16.226563 10.32902,1.367335 17.59389,10.849099 16.22656,21.178115 -1.36734,10.329012 -10.8491,17.593887 -21.17811,16.226557 -3.02211,-0.40006 -5.78192,-1.49477 -8.13995,-3.10209 -2.14644,-1.463096 -3.95998,-3.350943 -5.33542,-5.526256 -2.27796,-3.602658 -3.3543,-7.993792 -2.75119,-12.549763 z"
       id="path1" />
    <g
       id="g21"
       transform="matrix(2.1222877,0,0,2.1989386,-0.54331599,-125.40068)"
       inkscape:export-filename="kuantis-logo.png"
       inkscape:export-xdpi="300"
       inkscape:export-ydpi="300">
      <path
         style="font-weight:bold;font-size:13.2412px;font-family:Dubai;-inkscape-font-specification:'Dubai, Bold';fill:#152c50;fill-opacity:0.992157;stroke-width:1.10343"
         d="m 42.90233,67.661139 c -0.58934,0 -1.118828,-0.06347 -1.588459,-0.1904 -0.460423,-0.135395 -0.893221,-0.334258 -1.298392,-0.596587 l 0.787323,-1.104323 c 0.340712,0.228481 0.68603,0.393495 1.035951,0.495041 0.349922,0.09308 0.686031,0.139627 1.008327,0.139627 0.303879,0 0.524882,-0.04231 0.663009,-0.126933 0.147335,-0.08463 0.221003,-0.198862 0.221003,-0.342721 0,-0.09308 -0.02762,-0.173475 -0.08288,-0.241173 -0.05526,-0.07616 -0.170359,-0.14809 -0.345318,-0.215787 -0.165752,-0.07616 -0.41438,-0.156551 -0.745885,-0.241174 l -0.400567,-0.101547 c -0.66301,-0.169245 -1.14185,-0.389263 -1.436521,-0.660054 -0.285461,-0.270792 -0.428193,-0.638899 -0.428193,-1.104323 0,-0.355413 0.105898,-0.668515 0.317692,-0.939307 0.211794,-0.270792 0.51107,-0.478116 0.897824,-0.621975 0.386756,-0.15232 0.828762,-0.22848 1.326019,-0.22848 0.939263,0 1.791046,0.207325 2.555348,0.621974 l -0.71826,1.104322 c -0.377547,-0.177708 -0.695239,-0.30041 -0.953076,-0.368107 -0.257837,-0.0677 -0.534091,-0.101547 -0.828761,-0.101547 -0.230212,0 -0.405172,0.03808 -0.524882,0.11424 -0.110502,0.07616 -0.165753,0.173476 -0.165753,0.291947 0,0.08462 0.02302,0.156551 0.06907,0.215787 0.04604,0.05078 0.128921,0.101549 0.248629,0.15232 0.128918,0.04231 0.3269,0.09732 0.593945,0.165014 l 0.455819,0.114241 c 0.709051,0.169244 1.224725,0.406187 1.547021,0.710827 0.331505,0.304641 0.497258,0.689672 0.497258,1.155095 0,0.363876 -0.101291,0.689673 -0.30388,0.977389 -0.193378,0.287715 -0.497257,0.516196 -0.911638,0.68544 -0.405172,0.160783 -0.902429,0.241174 -1.491772,0.241174 z"
         id="path9" />
      <path
         style="font-weight:bold;font-size:13.2412px;font-family:Dubai;-inkscape-font-specification:'Dubai, Bold';fill:#152c50;fill-opacity:0.992157;stroke-width:1.10343"
         d="m 37.156242,67.483432 v -5.673929 l 1.878526,-0.165014 v 5.838943 z"
         id="path8" />
      <path
         style="font-weight:bold;font-size:13.2412px;font-family:Dubai;-inkscape-font-specification:'Dubai, Bold';fill:#d40000;fill-opacity:0.992157;stroke-width:1.10343"
         d="m 38.06788,61.237334 c -0.211794,0 -0.409776,-0.04654 -0.593945,-0.139627 -0.184169,-0.101547 -0.331505,-0.232712 -0.442007,-0.393495 -0.110501,-0.160781 -0.165752,-0.338489 -0.165752,-0.53312 0,-0.194632 0.05526,-0.372339 0.165752,-0.533122 0.110502,-0.169244 0.257838,-0.300409 0.442007,-0.393493 0.184169,-0.101547 0.382151,-0.15232 0.593945,-0.15232 0.221003,0 0.42359,0.05078 0.607758,0.15232 0.193378,0.09308 0.345318,0.224249 0.45582,0.393493 0.110501,0.160783 0.165752,0.33849 0.165752,0.533122 0,0.194631 -0.05526,0.372339 -0.165752,0.53312 -0.110502,0.160783 -0.262442,0.291948 -0.45582,0.393495 -0.184168,0.09308 -0.386755,0.139627 -0.607758,0.139627 z"
         id="path7" />
      <path
         style="font-weight:bold;font-size:13.2412px;font-family:Dubai;-inkscape-font-specification:'Dubai, Bold';fill:#152c50;fill-opacity:0.992157;stroke-width:1.10343"
         d="m 36.21697,67.242259 c -0.5433,0.279254 -1.151059,0.41888 -1.823276,0.41888 -0.340713,0 -0.658405,-0.05923 -0.953076,-0.177707 -0.285462,-0.126933 -0.520278,-0.325795 -0.704447,-0.596587 -0.184169,-0.270792 -0.276254,-0.613512 -0.276254,-1.028161 v -2.729068 h -1.13264 v -1.358189 h 1.13264 v -1.282029 l 1.878527,-0.241174 v 1.523203 1.358189 2.46251 c 0,0.253868 0.04604,0.431575 0.138127,0.533122 0.101291,0.101546 0.23942,0.152319 0.41438,0.152319 0.128918,0 0.253233,-0.01269 0.372943,-0.03808 0.11971,-0.03385 0.267046,-0.08463 0.442005,-0.152321 z"
         id="path6" />
      <path
         style="font-weight:bold;font-size:13.2412px;font-family:Dubai;-inkscape-font-specification:'Dubai, Bold';fill:#152c50;fill-opacity:0.992157;stroke-width:1.10343"
         d="m 28.689052,61.581023 c 0.635383,0 1.114223,0.148089 1.436519,0.444267 0.322297,0.287716 0.483445,0.710828 0.483445,1.269335 v 4.188807 H 28.730489 V 63.80236 c 0,-0.236943 -0.02762,-0.41888 -0.08288,-0.545814 -0.04604,-0.135396 -0.128921,-0.232712 -0.248629,-0.291948 -0.11971,-0.05923 -0.290066,-0.08885 -0.511069,-0.08885 -0.368339,0 -0.801137,0.135396 -1.298393,0.406187 v 4.2015 h -1.878526 v -5.673928 l 1.878526,-0.165014 V 62.203 c 0.340714,-0.194631 0.681426,-0.346951 1.022139,-0.45696 0.349922,-0.110009 0.709052,-0.165014 1.077391,-0.165014 z"
         id="path5" />
      <path
         id="path3"
         style="font-weight:bold;font-size:13.2412px;font-family:Dubai;-inkscape-font-specification:'Dubai, Bold';fill:#152c50;fill-opacity:0.992157;stroke-width:1.10343"
         d="m 20.677755,61.580923 c -0.561715,0 -1.081958,0.07211 -1.560796,0.215971 -0.469632,0.143858 -0.953238,0.36372 -1.450494,0.659897 l 0.718307,1.040843 c 0.736676,-0.431573 1.39509,-0.647207 1.975224,-0.647207 0.230211,0 0.409689,0.03382 0.538608,0.101523 0.128915,0.05924 0.216447,0.156483 0.262487,0.291877 0.05526,0.135396 0.08279,0.321668 0.08279,0.55861 v 0.139594 c -1.160265,0.04231 -2.099455,0.241031 -2.817713,0.596446 -0.71826,0.346951 -1.077461,0.854794 -1.077461,1.52331 0,0.313103 0.07843,0.592393 0.234972,0.837798 0.165752,0.236943 0.395878,0.42298 0.690549,0.558375 0.29467,0.135394 0.635433,0.20328 1.022188,0.20328 0.368338,0 0.718198,-0.04675 1.049702,-0.139829 0.340713,-0.09309 0.681476,-0.253752 1.022188,-0.482232 l 0.151941,0.444161 h 1.60219 v -4.023777 c 0,-0.668516 -0.207016,-1.146527 -0.621397,-1.434243 -0.405172,-0.296178 -1.012939,-0.444397 -1.823283,-0.444397 z m 0.566124,3.38926 v 1.104295 c -0.451215,0.228481 -0.86549,0.342639 -1.243037,0.342639 -0.230212,0 -0.405263,-0.04651 -0.524973,-0.139594 -0.119705,-0.101547 -0.179455,-0.245302 -0.179455,-0.431471 0,-0.22848 0.156612,-0.423208 0.4697,-0.583991 0.313086,-0.160785 0.805548,-0.258028 1.477765,-0.291878 z" />
      <path
         style="font-weight:bold;font-size:13.2412px;font-family:Dubai;-inkscape-font-specification:'Dubai, Bold';fill:#152c50;fill-opacity:0.992157;stroke-width:1.10343"
         d="m 16.216165,61.644493 v 5.838943 h -1.602272 l -0.15194,-0.45696 c -0.709051,0.423111 -1.43652,0.634667 -2.182405,0.634667 -0.616967,0 -1.095807,-0.156551 -1.436519,-0.469653 -0.331505,-0.313104 -0.497258,-0.744678 -0.497258,-1.294723 v -4.08726 l 1.878527,-0.165014 v 3.74454 c 0,0.338489 0.05986,0.583894 0.179564,0.736215 0.11971,0.143858 0.336109,0.215786 0.649197,0.215786 0.331505,0 0.759698,-0.131165 1.28458,-0.393494 v -4.138033 z"
         id="path2" />
      <path
         style="font-weight:bold;font-size:13.2412px;font-family:Dubai;-inkscape-font-specification:'Dubai, Bold';fill:#152c50;fill-opacity:0.992157;stroke-width:1.10343"
         d="m 7.1274035,64.386258 2.4034083,2.995632 v 0.101546 H 7.3345939 L 5.1660012,64.640125 v 2.843311 H 3.287475 v -8.733028 l 1.8785262,-0.165013 v 5.75009 L 7.41747,61.771427 h 1.9890276 v 0.08886 z"
         id="text2" />
      <path
         style="font-weight:bold;font-size:13.2412px;font-family:Dubai;-inkscape-font-specification:'Dubai, Bold';fill:#d40000;fill-opacity:0.992157;stroke-width:1.10343"
         d="m 34.894045,63.54455 c -0.211794,0 -0.409777,-0.04654 -0.593946,-0.139627 -0.184168,-0.101547 -0.331504,-0.232712 -0.442006,-0.393495 -0.110501,-0.160781 -0.165752,-0.338488 -0.165752,-0.53312 0,-0.194632 0.05526,-0.372339 0.165752,-0.533122 0.110502,-0.169244 0.257838,-0.300409 0.442006,-0.393493 0.184169,-0.101547 0.382152,-0.15232 0.593946,-0.15232 0.221002,0 0.423589,0.05078 0.607758,0.15232 0.193378,0.09308 0.345318,0.224249 0.455819,0.393493 0.110501,0.160783 0.165752,0.33849 0.165752,0.533122 0,0.194632 -0.05526,0.372339 -0.165752,0.53312 -0.110501,0.160783 -0.262441,0.291948 -0.455819,0.393495 -0.184169,0.09308 -0.386756,0.139627 -0.607758,0.139627 z"
         id="path10" />
    </g>
    <text
       xml:space="preserve"
       style="font-style:normal;font-variant:normal;font-weight:bold;font-stretch:normal;font-size:7.35629px;font-family:Dubai;-inkscape-font-specification:'Dubai, Bold';font-variant-ligatures:normal;font-variant-caps:normal;font-variant-numeric:normal;font-variant-east-asian:normal;letter-spacing:0px;fill:#152c50;fill-opacity:0.992157;stroke-width:1.64352"
       x="52.607327"
       y="107.16685"
       id="text3"
       transform="scale(0.93802233,1.0660727)"><tspan
         sodipodi:role="line"
         id="tspan2"
         style="font-style:normal;font-variant:normal;font-weight:500;font-stretch:normal;font-size:7.35629px;font-family:Dubai;-inkscape-font-specification:'Dubai, Medium';font-variant-ligatures:normal;font-variant-caps:normal;font-variant-numeric:normal;font-variant-east-asian:normal;letter-spacing:0px;fill:#152c50;fill-opacity:0.992157;stroke-width:1.64352"
         x="52.607327"
         y="107.16685">Digital Partner Solutions</tspan></text>
    <g
       id="g18"
       transform="matrix(2.1222877,0,0,2.1989386,41.978911,-55.927746)"
       inkscape:export-filename="kuantis-logo.png"
       inkscape:export-xdpi="300"
       inkscape:export-ydpi="300">
      <path
         style="font-weight:bold;font-size:13.2412px;font-family:Dubai;-inkscape-font-specification:'Dubai, Bold';fill:#152c50;fill-opacity:0.992157;stroke-width:1.10343"
         d="m 42.90233,67.661139 c -0.58934,0 -1.118828,-0.06347 -1.588459,-0.1904 -0.460423,-0.135395 -0.893221,-0.334258 -1.298392,-0.596587 l 0.787323,-1.104323 c 0.340712,0.228481 0.68603,0.393495 1.035951,0.495041 0.349922,0.09308 0.686031,0.139627 1.008327,0.139627 0.303879,0 0.524882,-0.04231 0.663009,-0.126933 0.147335,-0.08463 0.221003,-0.198862 0.221003,-0.342721 0,-0.09308 -0.02762,-0.173475 -0.08288,-0.241173 -0.05526,-0.07616 -0.170359,-0.14809 -0.345318,-0.215787 -0.165752,-0.07616 -0.41438,-0.156551 -0.745885,-0.241174 l -0.400567,-0.101547 c -0.66301,-0.169245 -1.14185,-0.389263 -1.436521,-0.660054 -0.285461,-0.270792 -0.428193,-0.638899 -0.428193,-1.104323 0,-0.355413 0.105898,-0.668515 0.317692,-0.939307 0.211794,-0.270792 0.51107,-0.478116 0.897824,-0.621975 0.386756,-0.15232 0.828762,-0.22848 1.326019,-0.22848 0.939263,0 1.791046,0.207325 2.555348,0.621974 l -0.71826,1.104322 c -0.377547,-0.177708 -0.695239,-0.30041 -0.953076,-0.368107 -0.257837,-0.0677 -0.534091,-0.101547 -0.828761,-0.101547 -0.230212,0 -0.405172,0.03808 -0.524882,0.11424 -0.110502,0.07616 -0.165753,0.173476 -0.165753,0.291947 0,0.08462 0.02302,0.156551 0.06907,0.215787 0.04604,0.05078 0.128921,0.101549 0.248629,0.15232 0.128918,0.04231 0.3269,0.09732 0.593945,0.165014 l 0.455819,0.114241 c 0.709051,0.169244 1.224725,0.406187 1.547021,0.710827 0.331505,0.304641 0.497258,0.689672 0.497258,1.155095 0,0.363876 -0.101291,0.689673 -0.30388,0.977389 -0.193378,0.287715 -0.497257,0.516196 -0.911638,0.68544 -0.405172,0.160783 -0.902429,0.241174 -1.491772,0.241174 z"
         id="path4" />
      <path
         style="font-weight:bold;font-size:13.2412px;font-family:Dubai;-inkscape-font-specification:'Dubai, Bold';fill:#152c50;fill-opacity:0.992157;stroke-width:1.10343"
         d="m 37.156242,67.483432 v -5.673929 l 1.878526,-0.165014 v 5.838943 z"
         id="path11" />
      <path
         style="font-weight:bold;font-size:13.2412px;font-family:Dubai;-inkscape-font-specification:'Dubai, Bold';fill:#d40000;fill-opacity:0.992157;stroke-width:1.10343"
         d="m 38.06788,61.237334 c -0.211794,0 -0.409776,-0.04654 -0.593945,-0.139627 -0.184169,-0.101547 -0.331505,-0.232712 -0.442007,-0.393495 -0.110501,-0.160781 -0.165752,-0.338489 -0.165752,-0.53312 0,-0.194632 0.05526,-0.372339 0.165752,-0.533122 0.110502,-0.169244 0.257838,-0.300409 0.442007,-0.393493 0.184169,-0.101547 0.382151,-0.15232 0.593945,-0.15232 0.221003,0 0.42359,0.05078 0.607758,0.15232 0.193378,0.09308 0.345318,0.224249 0.45582,0.393493 0.110501,0.160783 0.165752,0.33849 0.165752,0.533122 0,0.194631 -0.05526,0.372339 -0.165752,0.53312 -0.110502,0.160783 -0.262442,0.291948 -0.45582,0.393495 -0.184168,0.09308 -0.386755,0.139627 -0.607758,0.139627 z"
         id="path12" />
      <path
         style="font-weight:bold;font-size:13.2412px;font-family:Dubai;-inkscape-font-specification:'Dubai, Bold';fill:#152c50;fill-opacity:0.992157;stroke-width:1.10343"
         d="m 36.21697,67.242259 c -0.5433,0.279254 -1.151059,0.41888 -1.823276,0.41888 -0.340713,0 -0.658405,-0.05923 -0.953076,-0.177707 -0.285462,-0.126933 -0.520278,-0.325795 -0.704447,-0.596587 -0.184169,-0.270792 -0.276254,-0.613512 -0.276254,-1.028161 v -2.729068 h -1.13264 v -1.358189 h 1.13264 v -1.282029 l 1.878527,-0.241174 v 1.523203 1.358189 2.46251 c 0,0.253868 0.04604,0.431575 0.138127,0.533122 0.101291,0.101546 0.23942,0.152319 0.41438,0.152319 0.128918,0 0.253233,-0.01269 0.372943,-0.03808 0.11971,-0.03385 0.267046,-0.08463 0.442005,-0.152321 z"
         id="path13" />
      <path
         style="font-weight:bold;font-size:13.2412px;font-family:Dubai;-inkscape-font-specification:'Dubai, Bold';fill:#152c50;fill-opacity:0.992157;stroke-width:1.10343"
         d="m 28.689052,61.581023 c 0.635383,0 1.114223,0.148089 1.436519,0.444267 0.322297,0.287716 0.483445,0.710828 0.483445,1.269335 v 4.188807 H 28.730489 V 63.80236 c 0,-0.236943 -0.02762,-0.41888 -0.08288,-0.545814 -0.04604,-0.135396 -0.128921,-0.232712 -0.248629,-0.291948 -0.11971,-0.05923 -0.290066,-0.08885 -0.511069,-0.08885 -0.368339,0 -0.801137,0.135396 -1.298393,0.406187 v 4.2015 h -1.878526 v -5.673928 l 1.878526,-0.165014 V 62.203 c 0.340714,-0.194631 0.681426,-0.346951 1.022139,-0.45696 0.349922,-0.110009 0.709052,-0.165014 1.077391,-0.165014 z"
         id="path14" />
      <path
         id="path15"
         style="font-weight:bold;font-size:13.2412px;font-family:Dubai;-inkscape-font-specification:'Dubai, Bold';fill:#152c50;fill-opacity:0.992157;stroke-width:1.10343"
         d="m 20.677755,61.580923 c -0.561715,0 -1.081958,0.07211 -1.560796,0.215971 -0.469632,0.143858 -0.953238,0.36372 -1.450494,0.659897 l 0.718307,1.040843 c 0.736676,-0.431573 1.39509,-0.647207 1.975224,-0.647207 0.230211,0 0.409689,0.03382 0.538608,0.101523 0.128915,0.05924 0.216447,0.156483 0.262487,0.291877 0.05526,0.135396 0.08279,0.321668 0.08279,0.55861 v 0.139594 c -1.160265,0.04231 -2.099455,0.241031 -2.817713,0.596446 -0.71826,0.346951 -1.077461,0.854794 -1.077461,1.52331 0,0.313103 0.07843,0.592393 0.234972,0.837798 0.165752,0.236943 0.395878,0.42298 0.690549,0.558375 0.29467,0.135394 0.635433,0.20328 1.022188,0.20328 0.368338,0 0.718198,-0.04675 1.049702,-0.139829 0.340713,-0.09309 0.681476,-0.253752 1.022188,-0.482232 l 0.151941,0.444161 h 1.60219 v -4.023777 c 0,-0.668516 -0.207016,-1.146527 -0.621397,-1.434243 -0.405172,-0.296178 -1.012939,-0.444397 -1.823283,-0.444397 z m 0.566124,3.38926 v 1.104295 c -0.451215,0.228481 -0.86549,0.342639 -1.243037,0.342639 -0.230212,0 -0.405263,-0.04651 -0.524973,-0.139594 -0.119705,-0.101547 -0.179455,-0.245302 -0.179455,-0.431471 0,-0.22848 0.156612,-0.423208 0.4697,-0.583991 0.313086,-0.160785 0.805548,-0.258028 1.477765,-0.291878 z" />
      <path
         style="font-weight:bold;font-size:13.2412px;font-family:Dubai;-inkscape-font-specification:'Dubai, Bold';fill:#152c50;fill-opacity:0.992157;stroke-width:1.10343"
         d="m 16.216165,61.644493 v 5.838943 h -1.602272 l -0.15194,-0.45696 c -0.709051,0.423111 -1.43652,0.634667 -2.182405,0.634667 -0.616967,0 -1.095807,-0.156551 -1.436519,-0.469653 -0.331505,-0.313104 -0.497258,-0.744678 -0.497258,-1.294723 v -4.08726 l 1.878527,-0.165014 v 3.74454 c 0,0.338489 0.05986,0.583894 0.179564,0.736215 0.11971,0.143858 0.336109,0.215786 0.649197,0.215786 0.331505,0 0.759698,-0.131165 1.28458,-0.393494 v -4.138033 z"
         id="path16" />
      <path
         style="font-weight:bold;font-size:13.2412px;font-family:Dubai;-inkscape-font-specification:'Dubai, Bold';fill:#152c50;fill-opacity:0.992157;stroke-width:1.10343"
         d="m 7.1274035,64.386258 2.4034083,2.995632 v 0.101546 H 7.3345939 L 5.1660012,64.640125 v 2.843311 H 3.287475 v -8.733028 l 1.8785262,-0.165013 v 5.75009 L 7.41747,61.771427 h 1.9890276 v 0.08886 z"
         id="path17" />
      <path
         style="font-weight:bold;font-size:13.2412px;font-family:Dubai;-inkscape-font-specification:'Dubai, Bold';fill:#d40000;fill-opacity:0.992157;stroke-width:1.10343"
         d="m 34.894045,63.54455 c -0.211794,0 -0.409777,-0.04654 -0.593946,-0.139627 -0.184168,-0.101547 -0.331504,-0.232712 -0.442006,-0.393495 -0.110501,-0.160781 -0.165752,-0.338488 -0.165752,-0.53312 0,-0.194632 0.05526,-0.372339 0.165752,-0.533122 0.110502,-0.169244 0.257838,-0.300409 0.442006,-0.393493 0.184169,-0.101547 0.382152,-0.15232 0.593946,-0.15232 0.221002,0 0.423589,0.05078 0.607758,0.15232 0.193378,0.09308 0.345318,0.224249 0.455819,0.393493 0.110501,0.160783 0.165752,0.33849 0.165752,0.533122 0,0.194632 -0.05526,0.372339 -0.165752,0.53312 -0.110501,0.160783 -0.262441,0.291948 -0.455819,0.393495 -0.184169,0.09308 -0.386756,0.139627 -0.607758,0.139627 z"
         id="path18" />
    </g>
    <circle
       style="fill:none;fill-opacity:0.992157;stroke:#b0b0b0;stroke-width:1.05833;stroke-linecap:round;stroke-linejoin:round;stroke-dasharray:0, 4.23333;stroke-dashoffset:0;stroke-opacity:1;paint-order:stroke markers fill"
       id="circle18"
       cx="-203.1978"
       cy="-43.802803"
       r="18.865496"
       transform="rotate(-172.45915)" />
  </g>
</svg>
